<svg width="63" height="63" viewBox="0 0 63 63" fill="none" xmlns="http://www.w3.org/2000/svg">
<circle cx="31.5" cy="31.5" r="29.5" fill="white"/>
<path d="M28.0424 33.229C28.0424 35.7589 26.2299 37.8175 23.9511 37.8175C21.7079 37.8175 19.8597 35.7589 19.8597 33.229C19.8597 30.7004 21.6722 28.6406 23.9511 28.6406C26.2471 28.6406 28.078 30.7189 28.0424 33.229Z" fill="#404EED"/>
<path d="M43.1686 33.229C43.1686 35.7589 41.3746 37.8175 39.0773 37.8175C36.8341 37.8175 34.986 35.7589 34.986 33.229C34.986 30.7004 36.7984 28.6406 39.0773 28.6406C41.3746 28.6406 43.2043 30.7189 43.1686 33.229Z" fill="#404EED"/>
<path d="M31.5 0C14.1036 0 0 14.1036 0 31.5C0 48.8964 14.1036 63 31.5 63C48.8964 63 63 48.8964 63 31.5C63 14.1036 48.8964 0 31.5 0ZM54.0065 43.0972C50.1133 45.9568 46.3407 47.693 42.621 48.8435C42.5619 48.8619 42.4979 48.8398 42.461 48.7893C41.6021 47.5933 40.822 46.3321 40.1379 45.0081C40.0985 44.9306 40.1342 44.8371 40.2154 44.8063C41.4545 44.3375 42.6333 43.7776 43.7678 43.1156C43.8576 43.0627 43.8625 42.9347 43.7801 42.8732C43.5401 42.6948 43.3014 42.5065 43.0738 42.3183C43.0307 42.2838 42.9729 42.2764 42.9249 42.2998C35.5618 45.7021 27.4961 45.7021 20.0456 42.2998C19.9976 42.2789 19.9397 42.2863 19.8991 42.3207C19.6715 42.5078 19.4328 42.6948 19.1941 42.8732C19.1116 42.9347 19.1178 43.0627 19.2076 43.1156C20.3421 43.7653 21.5209 44.3375 22.7588 44.8075C22.84 44.8383 22.8781 44.9306 22.8375 45.0081C22.1694 46.3345 21.388 47.5945 20.5131 48.7905C20.475 48.8398 20.4122 48.8619 20.3532 48.8435C16.6507 47.693 12.8793 45.9568 8.98488 43.0972C8.95289 43.0713 8.92951 43.032 8.92582 42.9901C8.1334 34.4962 9.75023 25.8964 15.6516 17.0789C15.6663 17.0555 15.6872 17.0371 15.7131 17.0272C18.6158 15.6934 21.7276 14.7127 24.9785 14.1529C25.0376 14.1442 25.0966 14.1713 25.1274 14.223C25.5298 14.9354 25.9887 15.8472 26.3 16.5929C29.7269 16.0699 33.2079 16.0699 36.7073 16.5929C37.0174 15.8632 37.4604 14.9354 37.8603 14.223C37.8911 14.1688 37.9501 14.1418 38.0092 14.1529C41.2625 14.7139 44.3744 15.6959 47.2758 17.0272C47.3017 17.0371 47.3226 17.0555 47.3349 17.0814C52.4758 24.6426 55.0155 33.1722 54.0656 42.9926C54.0619 43.0344 54.041 43.0713 54.0065 43.0972Z" fill="#404EED"/>
</svg>
