<svg width="19" height="19" viewBox="0 0 19 19" fill="none" xmlns="http://www.w3.org/2000/svg">
<g clip-path="url(#clip0_1637_782)">
<path d="M16.0844 3.45832C14.8734 2.90268 13.5748 2.49329 12.217 2.2588C12.1922 2.25427 12.1675 2.26559 12.1548 2.28819C11.9878 2.58525 11.8028 2.97274 11.6732 3.27734C10.2129 3.05869 8.75996 3.05869 7.32954 3.27734C7.19995 2.96599 7.00825 2.58525 6.84048 2.28819C6.82775 2.26633 6.80303 2.25501 6.77832 2.2588C5.4213 2.49251 4.1227 2.9019 2.91093 3.45832C2.90042 3.46285 2.89144 3.47038 2.88547 3.48018C0.422296 7.16013 -0.252501 10.7496 0.0785143 14.2946C0.0799987 14.312 0.0897585 14.3285 0.103229 14.3391C1.72836 15.5326 3.30261 16.2571 4.84759 16.7374C4.87231 16.7449 4.8985 16.7359 4.91424 16.7155C5.27969 16.2164 5.60548 15.6902 5.8848 15.1367C5.90127 15.1044 5.88554 15.0659 5.85184 15.0531C5.3351 14.8571 4.84306 14.618 4.36973 14.3467C4.33229 14.3248 4.32928 14.2712 4.36376 14.2456C4.46336 14.171 4.563 14.0933 4.65811 14.0149C4.67533 14.0006 4.6993 13.9976 4.71953 14.0066C7.829 15.4263 11.1954 15.4263 14.2681 14.0066C14.2884 13.9968 14.3123 13.9998 14.3303 14.0141C14.4254 14.0925 14.5251 14.1709 14.6254 14.2456C14.6598 14.2712 14.6576 14.3248 14.6202 14.3466C14.1468 14.6233 13.6548 14.857 13.1373 15.0523C13.1036 15.0651 13.0886 15.1043 13.1051 15.1367C13.3905 15.6893 13.7163 16.2156 14.075 16.7147C14.0899 16.7358 14.1169 16.7449 14.1416 16.7373C15.6941 16.2571 17.2683 15.5325 18.8935 14.339C18.9077 14.3285 18.9167 14.3127 18.9182 14.2953C19.3144 10.1969 18.2546 6.63685 16.109 3.48088C16.1038 3.47038 16.0948 3.46285 16.0844 3.45832ZM6.34922 12.1361C5.41306 12.1361 4.64167 11.2766 4.64167 10.2211C4.64167 9.16555 5.39807 8.3061 6.34922 8.3061C7.30779 8.3061 8.07173 9.17312 8.05674 10.2211C8.05674 11.2766 7.3003 12.1361 6.34922 12.1361ZM12.6625 12.1361C11.7264 12.1361 10.955 11.2766 10.955 10.2211C10.955 9.16555 11.7114 8.3061 12.6625 8.3061C13.6211 8.3061 14.385 9.17312 14.3701 10.2211C14.3701 11.2766 13.6212 12.1361 12.6625 12.1361Z" fill="white"/>
</g>
<defs>
<clipPath id="clip0_1637_782">
<rect width="19" height="19" fill="white"/>
</clipPath>
</defs>
</svg>
