<svg width="33" height="33" viewBox="0 0 33 33" fill="none" xmlns="http://www.w3.org/2000/svg">
<circle cx="16.5" cy="16.5" r="15.5" transform="rotate(90 16.5 16.5)" stroke="white" stroke-width="2"/>
<path d="M16.9274 21.8242L20.9 17.8517C21.0134 17.7383 21.0756 17.5871 21.0756 17.426C21.0756 17.2647 21.0133 17.1136 20.9 17.0002L20.5392 16.6395C20.426 16.5262 20.2748 16.4638 20.1135 16.4638C19.9524 16.4638 19.7961 16.5262 19.6828 16.6395L17.3602 18.957V11.5943C17.3602 11.2623 17.1004 11 16.7683 11H16.2583C15.9262 11 15.6401 11.2623 15.6401 11.5943V18.9833L13.3046 16.6396C13.1912 16.5263 13.0441 16.4639 12.8828 16.4639C12.7218 16.4639 12.5725 16.5263 12.4592 16.6396L12.0996 17.0003C11.9862 17.1137 11.9244 17.2648 11.9244 17.4261C11.9244 17.5872 11.987 17.7384 12.1004 17.8518L16.0729 21.8243C16.1867 21.9379 16.3385 22.0004 16.4999 22C16.6619 22.0003 16.8138 21.9379 16.9274 21.8242Z" fill="white"/>
</svg>
