<svg width="63" height="63" viewBox="0 0 63 63" fill="none" xmlns="http://www.w3.org/2000/svg">
<circle cx="31.5" cy="31.5" r="29.5" fill="white"/>
<path d="M31.5 37.959C35.0677 37.959 37.96 35.0668 37.96 31.499C37.96 27.9313 35.0677 25.0391 31.5 25.0391C27.9323 25.0391 25.04 27.9313 25.04 31.499C25.04 35.0668 27.9323 37.959 31.5 37.959Z" fill="#F66971"/>
<path d="M31.5 0.738281C14.5108 0.738281 0.738281 14.5108 0.738281 31.5C0.738281 48.4892 14.5108 62.2617 31.5 62.2617C48.4892 62.2617 62.2617 48.4892 62.2617 31.5C62.2617 14.5108 48.4892 0.738281 31.5 0.738281ZM50.5056 39.3184C50.3579 42.243 49.5361 45.1269 47.4048 47.2356C45.2528 49.3643 42.3552 50.1575 39.4024 50.3037H23.5977C20.6446 50.1575 17.7473 49.3648 15.5953 47.2356C13.4639 45.1269 12.6422 42.243 12.4945 39.3184V23.6816C12.6422 20.757 13.464 17.8731 15.5953 15.7643C17.7473 13.6356 20.6449 12.8424 23.5977 12.6963H39.4023C42.3554 12.8424 45.2527 13.6352 47.4047 15.7643C49.5361 17.8731 50.3578 20.757 50.5055 23.6816L50.5056 39.3184Z" fill="#F66971"/>
<path d="M39.2027 16.2589C35.3531 16.1533 27.6479 16.1533 23.7982 16.2589C21.7949 16.3139 19.5238 16.8126 18.0965 18.3371C16.6133 19.9219 16.0528 21.8365 15.9959 23.9783C15.896 27.7377 15.9959 39.0211 15.9959 39.0211C16.061 41.1627 16.6133 43.0776 18.0965 44.6623C19.5238 46.1873 21.7949 46.6855 23.7982 46.7405C27.6479 46.8461 35.3531 46.8461 39.2027 46.7405C41.206 46.6855 43.4771 46.1868 44.9045 44.6623C46.3877 43.0776 46.9481 41.1629 47.005 39.0211V23.9783C46.9481 21.8365 46.3877 19.9219 44.9045 18.3371C43.4766 16.8121 41.2055 16.3139 39.2027 16.2589V16.2589ZM31.5 41.5126C29.5196 41.5126 27.5837 40.9254 25.9371 39.8252C24.2905 38.7249 23.0071 37.1611 22.2492 35.3315C21.4914 33.5019 21.2931 31.4886 21.6794 29.5463C22.0658 27.604 23.0194 25.8198 24.4198 24.4195C25.8201 23.0192 27.6042 22.0655 29.5465 21.6792C31.4889 21.2928 33.5021 21.4911 35.3318 22.249C37.1614 23.0068 38.7252 24.2902 39.8254 25.9368C40.9257 27.5834 41.5129 29.5193 41.5129 31.4997C41.5129 34.1553 40.458 36.7021 38.5802 38.5799C36.7024 40.4577 34.1556 41.5126 31.5 41.5126V41.5126ZM41.5555 23.5536C41.1594 23.5535 40.7723 23.436 40.443 23.2158C40.1138 22.9957 39.8572 22.6829 39.7057 22.317C39.5542 21.9511 39.5146 21.5484 39.5919 21.16C39.6693 20.7716 39.86 20.4148 40.1401 20.1348C40.4202 19.8548 40.777 19.6641 41.1655 19.5868C41.5539 19.5096 41.9566 19.5493 42.3224 19.7009C42.6883 19.8525 43.0011 20.1092 43.2211 20.4385C43.4411 20.7678 43.5586 21.1549 43.5586 21.551C43.5586 21.814 43.5067 22.0745 43.4061 22.3175C43.3054 22.5605 43.1579 22.7812 42.9718 22.9672C42.7858 23.1532 42.565 23.3007 42.322 23.4013C42.079 23.5019 41.8185 23.5536 41.5555 23.5536Z" fill="#F66971"/>
</svg>
