<svg width="162" height="35" viewBox="0 0 162 35" fill="none" xmlns="http://www.w3.org/2000/svg">
<g clip-path="url(#clip0_1637_730)">
<path d="M25.2412 23.9321H34.2798V35H0V28.5217L13.9864 7.37775H9.26554V11.0679H0.226967V0H33.5535V6.47835L19.6125 27.6223H25.2412V23.9321Z" fill="#972FFF"/>
<path d="M87.2989 7.37775H85.0293V27.6223H87.2989V35H70.1403V27.6223H72.3192V11.8774L64.6024 35H57.8789L49.9324 12.097V27.617H52.1113V34.9947H37.217V27.6223H39.4866V7.37775H37.217V0H58.015L62.7333 14.036L67.2726 0H87.2989V7.37775Z" fill="white"/>
<path d="M122.452 27.6223H124.268V35H106.466V27.6223H109.194L108.468 24.022H102.289L101.563 27.6223H104.287V35H88.7569V27.6223H90.5726L98.2467 0H114.775L122.452 27.6223ZM103.288 19.2552H107.464L105.595 10.3035H105.141L103.288 19.2552Z" fill="white"/>
<path d="M159.733 27.6223H162.003V35H149.605L142.793 21.054L140.703 22.7628V27.6223H142.881V35H125.72V27.6223H127.99V7.37775H125.72V0H142.884V7.37775H140.703V13.3165L147.741 7.37775H144.884V0H161.776V7.37775H159.506L151.917 13.5863L159.733 27.6223Z" fill="white"/>
</g>
<defs>
<clipPath id="clip0_1637_730">
<rect width="162" height="35" fill="white"/>
</clipPath>
</defs>
</svg>
