<svg width="11" height="11" viewBox="0 0 11 11" fill="none" xmlns="http://www.w3.org/2000/svg">
<path d="M10.8242 5.074L6.85168 1.10142C6.73829 0.988025 6.58715 0.925781 6.426 0.925781C6.26467 0.925781 6.11362 0.988114 6.00022 1.10142L5.63955 1.46218C5.52624 1.5754 5.46382 1.72663 5.46382 1.88787C5.46382 2.04902 5.52624 2.20535 5.63955 2.31857L7.95704 4.64116H0.594263C0.262298 4.64116 0 4.90104 0 5.2331V5.74312C0 6.07517 0.262298 6.36126 0.594263 6.36126H7.98333L5.63964 8.69681C5.52633 8.81021 5.46391 8.95733 5.46391 9.11857C5.46391 9.27963 5.52633 9.42889 5.63964 9.5422L6.00031 9.9018C6.11371 10.0152 6.26475 10.077 6.42609 10.077C6.58724 10.077 6.73838 10.0144 6.85177 9.90099L10.8243 5.9285C10.9379 5.81475 11.0004 5.6629 11 5.50148C11.0003 5.33952 10.9379 5.18758 10.8242 5.074Z" fill="white"/>
</svg>
