<svg width="63" height="63" viewBox="0 0 63 63" fill="none" xmlns="http://www.w3.org/2000/svg">
<circle cx="31.5" cy="31.5" r="29.5" fill="white"/>
<path fill-rule="evenodd" clip-rule="evenodd" d="M44.0252 25.076C44.037 25.3536 44.0449 25.6312 44.0449 25.9127C44.0449 34.4512 37.5441 44.2988 25.6567 44.2988C22.0067 44.2988 18.6106 43.2298 15.75 41.3969C16.256 41.456 16.7698 41.4855 17.2915 41.4855C20.3195 41.4855 23.1052 40.4539 25.3181 38.7194C22.489 38.6682 20.1029 36.7999 19.28 34.2326C19.6757 34.3074 20.0793 34.3468 20.4967 34.3468C21.0853 34.3468 21.6563 34.2681 22.1996 34.1204C19.2426 33.5278 17.0159 30.9153 17.0159 27.785V27.7023C17.8861 28.1866 18.8843 28.478 19.9434 28.5114C18.209 27.3518 17.0671 25.3733 17.0671 23.1328C17.0671 21.9476 17.386 20.8372 17.9432 19.8824C21.1306 23.7923 25.893 26.3655 31.2638 26.6352C31.1535 26.1627 31.0964 25.6686 31.0964 25.1626C31.0964 21.5933 33.9905 18.6992 37.5578 18.6992C39.4183 18.6992 41.0977 19.4847 42.275 20.7408C43.7476 20.4514 45.1316 19.9139 46.3798 19.1737C45.8975 20.6817 44.8717 21.9476 43.5389 22.7489C44.8462 22.5914 46.0904 22.2449 47.25 21.7311C46.3838 23.0265 45.2872 24.1644 44.0252 25.076V25.076ZM31.5 0C14.1022 0 0 14.1022 0 31.5C0 48.8959 14.1022 63 31.5 63C48.8978 63 63 48.8959 63 31.5C63 14.1022 48.8978 0 31.5 0" fill="#00ACEE"/>
</svg>
