<svg width="17" height="15" viewBox="0 0 17 15" fill="none" xmlns="http://www.w3.org/2000/svg">
<path d="M16.7283 6.83959L10.589 0.700156C10.4137 0.524905 10.1801 0.428711 9.93109 0.428711C9.68176 0.428711 9.44832 0.525043 9.27307 0.700156L8.71567 1.2577C8.54055 1.43267 8.44408 1.66638 8.44408 1.91558C8.44408 2.16463 8.54055 2.40622 8.71567 2.5812L12.2972 6.17065H0.918406C0.40537 6.17065 0 6.57229 0 7.08547V7.87368C0 8.38686 0.40537 8.82899 0.918406 8.82899H12.3379L8.71581 12.4385C8.54069 12.6137 8.44422 12.8411 8.44422 13.0903C8.44422 13.3392 8.54069 13.5699 8.71581 13.745L9.27321 14.3007C9.44846 14.476 9.68189 14.5715 9.93122 14.5715C10.1803 14.5715 10.4139 14.4747 10.5891 14.2995L16.7284 8.16019C16.9041 7.98439 17.0007 7.74971 17 7.50024C17.0005 7.24994 16.9041 7.01512 16.7283 6.83959Z" fill="white"/>
</svg>
