<svg width="1586" height="337" viewBox="0 0 1586 337" fill="none" xmlns="http://www.w3.org/2000/svg">
<g opacity="0.1" clip-path="url(#clip0_1637_817)">
<path d="M247.115 230.431L335.603 230.431V337H0L0 274.623L136.929 71.0372H90.7107V106.568H2.22204L2.22204 0L328.493 0V62.3773L192.009 265.963H247.115V230.431Z" fill="white"/>
<path d="M854.668 71.0372H832.447V265.963H854.668V337H686.683V265.963H708.014V114.363L632.466 337H566.641L488.845 116.477V265.912H510.176V336.949H364.359V265.963H386.579V71.0372H364.359V0L567.975 0L614.167 135.146L658.607 0L854.668 0V71.0372Z" fill="white"/>
<path d="M1198.82 265.963H1216.6V337H1042.31V265.963H1069.03L1061.92 231.298H1001.43L994.315 265.963H1020.98V337H868.941V265.963H886.717L961.848 0L1123.66 0L1198.82 265.963ZM1011.2 185.4H1052.09L1033.79 99.2076H1029.34L1011.2 185.4Z" fill="white"/>
<path d="M1563.81 265.963H1586.03V337H1464.65L1397.96 202.72L1377.5 219.174V265.963H1398.83V337H1230.82V265.963H1253.04V71.0372H1230.82V0L1398.85 0V71.0372H1377.5V128.218L1446.4 71.0372H1418.43V0L1583.8 0V71.0372H1561.58L1487.29 130.816L1563.81 265.963Z" fill="white"/>
</g>
<defs>
<clipPath id="clip0_1637_817">
<rect width="1586" height="337" fill="white"/>
</clipPath>
</defs>
</svg>
