<svg width="18" height="19" viewBox="0 0 18 19" fill="none" xmlns="http://www.w3.org/2000/svg">
<path d="M16.25 0.75H1.21094C0.546875 0.75 0 1.33594 0 2.03906V17C0 17.7031 0.546875 18.25 1.21094 18.25H16.25C16.9141 18.25 17.5 17.7031 17.5 17V2.03906C17.5 1.33594 16.9141 0.75 16.25 0.75ZM5.27344 15.75H2.69531V7.42969H5.27344V15.75ZM3.98438 6.25781C3.125 6.25781 2.46094 5.59375 2.46094 4.77344C2.46094 3.95312 3.125 3.25 3.98438 3.25C4.80469 3.25 5.46875 3.95312 5.46875 4.77344C5.46875 5.59375 4.80469 6.25781 3.98438 6.25781ZM15 15.75H12.3828V11.6875C12.3828 10.75 12.3828 9.5 11.0547 9.5C9.6875 9.5 9.49219 10.5547 9.49219 11.6484V15.75H6.91406V7.42969H9.375V8.5625H9.41406C9.76562 7.89844 10.625 7.19531 11.875 7.19531C14.4922 7.19531 15 8.95312 15 11.1797V15.75Z" fill="white"/>
</svg>
